<svg xmlns="http://www.w3.org/2000/svg" width="698" height="583" fill="none"><path stroke="#000" stroke-linecap="round" stroke-linejoin="round" stroke-width="18" d="M9 573.5c20 0 50-42 85-48 20 0 35 42 85 48 35 0 50-42 85-42s50 42 85 42 50-42 85-42 50 42 85 42 50-42 85-42 50 42 85 42"/><path stroke="#000" stroke-linecap="round" stroke-linejoin="round" stroke-width="18" d="m77.4 531.7-22.9-43.8 590-38c-46.4 42.2-106 76.4-166.3 104.4M289.4 79.9c100.4 30.7 240.8 179 288.6 338.4-26.2-10.3-45.8-20.8-82.6-11.4-35.6-129.5-99.3-253.2-206-327M102.7 9c128.6 55 305 208.1 337.4 412-148.3-59.8-261.2-27.9-339.8 20.6C220.2 289.2 166.4 115.9 102.7 9"/></svg>